<svg width="580" height="74" viewBox="0 0 580 74" fill="none" xmlns="http://www.w3.org/2000/svg">
<path d="M568.802 68.25V68L568.602 68.15V40.25C568.602 36.6833 567.902 33.9833 566.502 32.15C565.136 30.2833 563.036 29.35 560.202 29.35C557.136 29.35 554.902 30.05 553.502 31.45C552.136 32.8167 551.452 34.2167 551.452 35.65V38.5C551.452 39.5667 551.119 40.4167 550.452 41.05C549.819 41.65 549.019 41.95 548.052 41.95C547.252 41.95 546.586 41.6667 546.052 41.1C545.552 40.5333 545.302 39.7167 545.302 38.65C545.302 36.9833 545.902 35.4 547.102 33.9C548.302 32.3667 550.052 31.1333 552.352 30.2C554.686 29.2333 557.519 28.75 560.852 28.75C565.452 28.75 568.869 29.8167 571.102 31.95C573.336 34.0833 574.452 37 574.452 40.7V67.95C574.452 69.4833 574.686 70.5667 575.152 71.2C575.619 71.8333 576.219 72.15 576.952 72.15C577.619 72.15 578.186 71.9667 578.652 71.6C579.119 71.2333 579.386 70.7333 579.452 70.1C579.486 70 579.519 69.9333 579.552 69.9C579.619 69.8667 579.669 69.85 579.702 69.85C579.802 69.85 579.869 69.8667 579.902 69.9C579.936 69.9333 579.952 70 579.952 70.1C579.952 70.6 579.752 71.1333 579.352 71.7C578.986 72.2667 578.402 72.75 577.602 73.15C576.836 73.55 575.836 73.75 574.602 73.75C572.702 73.75 571.252 73.2667 570.252 72.3C569.286 71.3333 568.802 69.9833 568.802 68.25ZM543.052 63.45C543.052 60.2167 544.386 57.5333 547.052 55.4C549.752 53.2333 553.686 52.15 558.852 52.15C561.452 52.15 563.636 52.4 565.402 52.9C567.202 53.3667 568.869 53.9333 570.402 54.6L570.102 55C568.636 54.3667 567.069 53.8333 565.402 53.4C563.769 52.9667 561.952 52.75 559.952 52.75C556.419 52.75 553.736 53.65 551.902 55.45C550.069 57.25 549.152 59.6 549.152 62.5C549.152 65.3667 549.986 67.65 551.652 69.35C553.352 71.05 555.586 71.9 558.352 71.9C560.386 71.9 562.369 71.5 564.302 70.7C566.236 69.9 567.869 68.6833 569.202 67.05L569.602 67.4C568.036 69.4667 565.969 71.05 563.402 72.15C560.869 73.25 558.152 73.8 555.252 73.8C551.552 73.8 548.586 72.85 546.352 70.95C544.152 69.0167 543.052 66.5167 543.052 63.45Z" fill="white" fill-opacity="0.15"/>
<path d="M519.209 49.9C519.209 45.2667 519.825 41.3834 521.059 38.25C522.292 35.1167 523.875 32.7667 525.809 31.2C527.742 29.6 529.742 28.8 531.809 28.8C534.042 28.8 535.775 29.4667 537.009 30.8C538.275 32.1 538.909 33.7834 538.909 35.85C538.909 37.2167 538.592 38.2667 537.959 39C537.359 39.7 536.592 40.05 535.659 40.05C534.792 40.05 534.092 39.7833 533.559 39.25C533.025 38.7167 532.742 37.8834 532.709 36.75V35.45C532.675 34.15 532.392 33.2 531.859 32.6C531.325 32 530.425 31.7 529.159 31.7C527.659 31.7 526.175 32.4 524.709 33.8C523.275 35.1667 522.075 37.2167 521.109 39.95C520.142 42.65 519.659 46 519.659 50L519.209 49.9ZM519.659 29.85V47.35V70.35C519.659 70.7167 519.759 71.0167 519.959 71.25C520.192 71.4834 520.525 71.6334 520.959 71.7L525.909 72.3C526.109 72.3334 526.242 72.3834 526.309 72.45C526.375 72.4834 526.409 72.55 526.409 72.65C526.409 72.7167 526.375 72.7834 526.309 72.85C526.242 72.9167 526.125 72.95 525.959 72.95H508.859C508.759 72.95 508.659 72.9167 508.559 72.85C508.459 72.75 508.409 72.6667 508.409 72.6C508.409 72.5334 508.459 72.4667 508.559 72.4C508.659 72.3334 508.809 72.2834 509.009 72.25L512.609 71.8C513.009 71.7 513.309 71.55 513.509 71.35C513.742 71.15 513.859 70.9 513.859 70.6V33.25C513.859 33.0834 513.809 32.95 513.709 32.85C513.642 32.7167 513.509 32.65 513.309 32.65H508.709C508.642 32.65 508.575 32.6167 508.509 32.55C508.442 32.4834 508.409 32.4167 508.409 32.35C508.409 32.25 508.442 32.1833 508.509 32.15C508.575 32.0834 508.675 32.0167 508.809 31.95L518.409 29.45C518.642 29.35 518.809 29.3 518.909 29.3C519.042 29.3 519.142 29.3 519.209 29.3C519.375 29.3 519.492 29.35 519.559 29.45C519.625 29.55 519.659 29.6834 519.659 29.85Z" fill="white" fill-opacity="0.15"/>
<path d="M471.416 0.550001V70.45C471.416 70.8167 471.516 71.1167 471.716 71.35C471.916 71.55 472.233 71.7 472.666 71.8L476.216 72.3C476.55 72.3333 476.716 72.45 476.716 72.65C476.716 72.85 476.566 72.95 476.266 72.95H460.466C460.4 72.95 460.316 72.9167 460.216 72.85C460.15 72.7833 460.116 72.7167 460.116 72.65C460.116 72.5833 460.166 72.5 460.266 72.4C460.4 72.3 460.6 72.2333 460.866 72.2L464.316 71.8C464.75 71.7 465.066 71.55 465.266 71.35C465.466 71.1167 465.566 70.85 465.566 70.55V4.1C465.566 3.93333 465.533 3.8 465.466 3.7C465.4 3.6 465.25 3.55 465.016 3.55H460.516C460.416 3.55 460.333 3.51667 460.266 3.45C460.2 3.38333 460.166 3.31667 460.166 3.25C460.166 3.15 460.2 3.08333 460.266 3.05C460.333 2.98333 460.433 2.93333 460.566 2.9L470.166 0.15C470.4 0.0833338 470.566 0.0500011 470.666 0.0500011C470.766 0.0166663 470.866 0 470.966 0C471.1 0 471.2 0.0499989 471.266 0.15C471.366 0.25 471.416 0.383335 471.416 0.550001ZM470.916 38.25L470.566 37.85L472.166 36.35C475.3 33.5167 477.916 31.55 480.016 30.45C482.116 29.35 484.2 28.8 486.266 28.8C489.433 28.8 491.9 29.8833 493.666 32.05C495.433 34.2167 496.633 37.4833 497.266 41.85L501.316 69.9C501.383 70.4667 501.55 70.9333 501.816 71.3C502.116 71.6667 502.566 71.8833 503.166 71.95L506.116 72.35C506.25 72.3833 506.35 72.4333 506.416 72.5C506.483 72.5333 506.516 72.5833 506.516 72.65C506.516 72.7167 506.483 72.7833 506.416 72.85C506.35 72.9167 506.25 72.95 506.116 72.95H490.066C489.733 72.95 489.566 72.85 489.566 72.65C489.566 72.4833 489.75 72.3667 490.116 72.3L493.816 71.8C494.45 71.7 494.883 71.4833 495.116 71.15C495.35 70.7833 495.433 70.3667 495.366 69.9L491.466 42.4C490.933 38.6333 490 35.8833 488.666 34.15C487.333 32.3833 485.4 31.5 482.866 31.5C481.233 31.5 479.6 31.9333 477.966 32.8C476.333 33.6333 474.516 34.95 472.516 36.75L470.916 38.25Z" fill="white" fill-opacity="0.15"/>
<path d="M441.141 73.15C443.941 73.15 446.191 72.4 447.891 70.9C449.591 69.3667 450.441 67.3833 450.441 64.95C450.441 63.3167 450.057 61.8667 449.291 60.6C448.557 59.3333 447.324 58.1833 445.591 57.15C443.857 56.1167 441.507 55.1333 438.541 54.2C435.074 53.1 432.307 51.9 430.241 50.6C428.207 49.2667 426.741 47.7667 425.841 46.1C424.974 44.4 424.541 42.4667 424.541 40.3C424.541 36.6 425.791 33.7333 428.291 31.7C430.824 29.6333 434.157 28.6 438.291 28.6C440.257 28.6 441.874 28.8 443.141 29.2C444.441 29.5667 445.424 29.95 446.091 30.35C446.791 30.75 447.241 30.95 447.441 30.95C447.707 30.95 448.107 30.75 448.641 30.35C449.174 29.95 449.691 29.5667 450.191 29.2C450.691 28.8 451.024 28.6 451.191 28.6C451.291 28.6 451.374 28.6167 451.441 28.65C451.507 28.6833 451.574 28.8 451.641 29L454.891 41.85C454.957 42.05 454.974 42.2167 454.941 42.35C454.941 42.4833 454.874 42.6 454.741 42.7C454.607 42.7333 454.491 42.7333 454.391 42.7C454.291 42.6333 454.207 42.5333 454.141 42.4C452.841 39.2 451.407 36.65 449.841 34.75C448.274 32.8167 446.557 31.4167 444.691 30.55C442.824 29.6833 440.757 29.25 438.491 29.25C435.357 29.25 432.874 30.0333 431.041 31.6C429.241 33.1333 428.341 35.2167 428.341 37.85C428.341 39.3833 428.691 40.7833 429.391 42.05C430.091 43.2833 431.324 44.4333 433.091 45.5C434.891 46.5333 437.407 47.5167 440.641 48.45C443.874 49.3833 446.491 50.5 448.491 51.8C450.491 53.1 451.957 54.6333 452.891 56.4C453.824 58.1333 454.291 60.1167 454.291 62.35C454.291 64.65 453.741 66.6667 452.641 68.4C451.574 70.1 450.074 71.45 448.141 72.45C446.207 73.4167 443.957 73.9 441.391 73.9C439.591 73.9 438.024 73.6167 436.691 73.05C435.391 72.4833 434.341 71.9167 433.541 71.35C432.741 70.7833 432.224 70.5 431.991 70.5C431.857 70.5 431.607 70.7667 431.241 71.3C430.874 71.8333 430.491 72.3667 430.091 72.9C429.691 73.4 429.391 73.65 429.191 73.65C429.091 73.65 428.991 73.6167 428.891 73.55C428.791 73.4833 428.691 73.3333 428.591 73.1L425.991 61.6C425.924 61.3 425.891 61.0833 425.891 60.95C425.924 60.7833 426.007 60.6833 426.141 60.65C426.241 60.5833 426.324 60.5833 426.391 60.65C426.491 60.6833 426.557 60.75 426.591 60.85C428.657 65.45 430.991 68.65 433.591 70.45C436.191 72.25 438.707 73.15 441.141 73.15Z" fill="white" fill-opacity="0.15"/>
<path d="M414.687 29.7V70.45C414.687 70.8167 414.787 71.1167 414.987 71.35C415.187 71.55 415.504 71.7 415.937 71.8L419.437 72.3C419.637 72.3 419.771 72.3333 419.837 72.4C419.904 72.4667 419.937 72.55 419.937 72.65C419.937 72.7167 419.904 72.7833 419.837 72.85C419.771 72.9167 419.671 72.95 419.537 72.95H403.737C403.637 72.95 403.554 72.9167 403.487 72.85C403.421 72.7833 403.387 72.7167 403.387 72.65C403.387 72.5833 403.421 72.5333 403.487 72.5C403.554 72.4333 403.654 72.3833 403.787 72.35L407.587 71.8C408.021 71.7 408.337 71.55 408.537 71.35C408.737 71.1167 408.837 70.85 408.837 70.55V33.3C408.837 33.1333 408.787 33 408.687 32.9C408.621 32.8 408.487 32.75 408.287 32.75H403.737C403.637 32.75 403.554 32.7167 403.487 32.65C403.454 32.5833 403.437 32.5167 403.437 32.45C403.437 32.3167 403.471 32.2333 403.537 32.2C403.604 32.1667 403.704 32.1167 403.837 32.05L413.387 29.35C413.654 29.25 413.837 29.2 413.937 29.2C414.037 29.2 414.121 29.2 414.187 29.2C414.354 29.2 414.471 29.25 414.537 29.35C414.637 29.45 414.687 29.5667 414.687 29.7ZM411.437 19.35C410.237 19.35 409.254 18.9167 408.487 18.05C407.754 17.1833 407.387 16.1333 407.387 14.9C407.387 13.6333 407.771 12.5833 408.537 11.75C409.337 10.8833 410.304 10.45 411.437 10.45C412.637 10.45 413.621 10.8833 414.387 11.75C415.154 12.6167 415.537 13.6667 415.537 14.9C415.537 16.1333 415.137 17.1833 414.337 18.05C413.571 18.9167 412.604 19.35 411.437 19.35Z" fill="white" fill-opacity="0.15"/>
<path d="M363.689 54.75L362.689 56L383.189 4.10001C383.389 3.60001 383.556 3.28335 383.689 3.15001C383.856 3.01668 384.106 2.95001 384.439 2.95001H395.139C395.306 2.95001 395.422 2.98334 395.489 3.05001C395.556 3.08335 395.589 3.15001 395.589 3.25001C395.589 3.31668 395.556 3.38334 395.489 3.45001C395.422 3.51668 395.306 3.55001 395.139 3.55001L389.489 4.35001C389.056 4.41668 388.739 4.61668 388.539 4.95002C388.339 5.28335 388.256 5.71668 388.289 6.25001L392.839 69.9C392.906 70.4667 393.006 70.8667 393.139 71.1C393.306 71.3334 393.672 71.5 394.239 71.6L399.389 72.35C399.556 72.35 399.672 72.3833 399.739 72.45C399.806 72.4833 399.839 72.55 399.839 72.65C399.839 72.7167 399.806 72.7834 399.739 72.85C399.672 72.9167 399.572 72.95 399.439 72.95H379.339C379.172 72.95 379.056 72.9167 378.989 72.85C378.922 72.7834 378.889 72.7167 378.889 72.65C378.889 72.55 378.922 72.4833 378.989 72.45C379.056 72.3833 379.172 72.35 379.339 72.35L384.489 71.6C385.122 71.5 385.556 71.3334 385.789 71.1C386.022 70.8334 386.139 70.45 386.139 69.95L381.739 8.30001H382.439L361.189 62.95C361.056 63.3167 360.922 63.5667 360.789 63.7C360.689 63.8333 360.589 63.9 360.489 63.9C360.389 63.9 360.289 63.8667 360.189 63.8C360.122 63.7333 360.056 63.6334 359.989 63.5C359.922 63.3667 359.839 63.1833 359.739 62.95L337.039 8.90002L337.639 7.90001L333.839 67.55C333.772 68.5167 333.972 69.3 334.439 69.9C334.906 70.4667 335.606 70.8667 336.539 71.1L343.639 72.35C343.772 72.3834 343.872 72.4167 343.939 72.45C344.039 72.4833 344.089 72.55 344.089 72.65C344.089 72.7167 344.056 72.7834 343.989 72.85C343.922 72.9167 343.822 72.95 343.689 72.95H324.689C324.556 72.95 324.456 72.9167 324.389 72.85C324.322 72.7834 324.289 72.7167 324.289 72.65C324.289 72.55 324.322 72.4833 324.389 72.45C324.489 72.4167 324.622 72.3834 324.789 72.35L329.689 71.2C330.756 70.9 331.556 70.4667 332.089 69.9C332.622 69.3 332.922 68.5 332.989 67.5L336.789 7.85001C336.889 6.85001 336.806 6.05001 336.539 5.45001C336.306 4.85001 335.839 4.51668 335.139 4.45001L330.589 3.85001C330.156 3.78335 329.822 3.73335 329.589 3.70001C329.389 3.63334 329.289 3.53335 329.289 3.40001C329.289 3.10001 329.606 2.95001 330.239 2.95001H340.939C341.306 2.95001 341.572 3.01668 341.739 3.15001C341.906 3.28335 342.072 3.58335 342.239 4.05001L363.689 54.75Z" fill="white" fill-opacity="0.15"/>
<path d="M285.81 49.9C285.81 45.2667 286.427 41.3834 287.66 38.25C288.893 35.1167 290.477 32.7667 292.41 31.2C294.343 29.6 296.343 28.8 298.41 28.8C300.643 28.8 302.377 29.4667 303.61 30.8C304.877 32.1 305.51 33.7834 305.51 35.85C305.51 37.2167 305.193 38.2667 304.56 39C303.96 39.7 303.193 40.05 302.26 40.05C301.393 40.05 300.693 39.7833 300.16 39.25C299.627 38.7167 299.343 37.8834 299.31 36.75V35.45C299.277 34.15 298.993 33.2 298.46 32.6C297.927 32 297.027 31.7 295.76 31.7C294.26 31.7 292.777 32.4 291.31 33.8C289.877 35.1667 288.677 37.2167 287.71 39.95C286.743 42.65 286.26 46 286.26 50L285.81 49.9ZM286.26 29.85V47.35V70.35C286.26 70.7167 286.36 71.0167 286.56 71.25C286.793 71.4834 287.127 71.6334 287.56 71.7L292.51 72.3C292.71 72.3334 292.843 72.3834 292.91 72.45C292.977 72.4834 293.01 72.55 293.01 72.65C293.01 72.7167 292.977 72.7834 292.91 72.85C292.843 72.9167 292.727 72.95 292.56 72.95H275.46C275.36 72.95 275.26 72.9167 275.16 72.85C275.06 72.75 275.01 72.6667 275.01 72.6C275.01 72.5334 275.06 72.4667 275.16 72.4C275.26 72.3334 275.41 72.2834 275.61 72.25L279.21 71.8C279.61 71.7 279.91 71.55 280.11 71.35C280.343 71.15 280.46 70.9 280.46 70.6V33.25C280.46 33.0834 280.41 32.95 280.31 32.85C280.243 32.7167 280.11 32.65 279.91 32.65H275.31C275.243 32.65 275.177 32.6167 275.11 32.55C275.043 32.4834 275.01 32.4167 275.01 32.35C275.01 32.25 275.043 32.1833 275.11 32.15C275.177 32.0834 275.277 32.0167 275.41 31.95L285.01 29.45C285.243 29.35 285.41 29.3 285.51 29.3C285.643 29.3 285.743 29.3 285.81 29.3C285.977 29.3 286.093 29.35 286.16 29.45C286.227 29.55 286.26 29.6834 286.26 29.85Z" fill="white" fill-opacity="0.15"/>
<path d="M260.306 68.25V68L260.106 68.15V40.25C260.106 36.6833 259.406 33.9833 258.006 32.15C256.64 30.2833 254.54 29.35 251.706 29.35C248.64 29.35 246.406 30.05 245.006 31.45C243.64 32.8167 242.956 34.2167 242.956 35.65V38.5C242.956 39.5667 242.623 40.4167 241.956 41.05C241.323 41.65 240.523 41.95 239.556 41.95C238.756 41.95 238.09 41.6667 237.556 41.1C237.056 40.5333 236.806 39.7167 236.806 38.65C236.806 36.9833 237.406 35.4 238.606 33.9C239.806 32.3667 241.556 31.1333 243.856 30.2C246.19 29.2333 249.023 28.75 252.356 28.75C256.956 28.75 260.373 29.8167 262.606 31.95C264.84 34.0833 265.956 37 265.956 40.7V67.95C265.956 69.4833 266.19 70.5667 266.656 71.2C267.123 71.8333 267.723 72.15 268.456 72.15C269.123 72.15 269.69 71.9667 270.156 71.6C270.623 71.2333 270.89 70.7333 270.956 70.1C270.99 70 271.023 69.9333 271.056 69.9C271.123 69.8667 271.173 69.85 271.206 69.85C271.306 69.85 271.373 69.8667 271.406 69.9C271.44 69.9333 271.456 70 271.456 70.1C271.456 70.6 271.256 71.1333 270.856 71.7C270.49 72.2667 269.906 72.75 269.106 73.15C268.34 73.55 267.34 73.75 266.106 73.75C264.206 73.75 262.756 73.2667 261.756 72.3C260.79 71.3333 260.306 69.9833 260.306 68.25ZM234.556 63.45C234.556 60.2167 235.89 57.5333 238.556 55.4C241.256 53.2333 245.19 52.15 250.356 52.15C252.956 52.15 255.14 52.4 256.906 52.9C258.706 53.3667 260.373 53.9333 261.906 54.6L261.606 55C260.14 54.3667 258.573 53.8333 256.906 53.4C255.273 52.9667 253.456 52.75 251.456 52.75C247.923 52.75 245.24 53.65 243.406 55.45C241.573 57.25 240.656 59.6 240.656 62.5C240.656 65.3667 241.49 67.65 243.156 69.35C244.856 71.05 247.09 71.9 249.856 71.9C251.89 71.9 253.873 71.5 255.806 70.7C257.74 69.9 259.373 68.6833 260.706 67.05L261.106 67.4C259.54 69.4667 257.473 71.05 254.906 72.15C252.373 73.25 249.656 73.8 246.756 73.8C243.056 73.8 240.09 72.85 237.856 70.95C235.656 69.0167 234.556 66.5167 234.556 63.45Z" fill="white" fill-opacity="0.15"/>
<path d="M188.201 72.95C188.101 72.95 188.018 72.9167 187.951 72.85C187.884 72.7833 187.851 72.7167 187.851 72.65C187.851 72.5833 187.901 72.5 188.001 72.4C188.134 72.3 188.334 72.2333 188.601 72.2L192.051 71.8C192.484 71.7 192.801 71.55 193.001 71.35C193.201 71.1167 193.301 70.85 193.301 70.55V4.1C193.301 3.93333 193.268 3.8 193.201 3.7C193.134 3.6 192.984 3.55 192.751 3.55H188.251C188.151 3.55 188.068 3.51667 188.001 3.45C187.934 3.38333 187.901 3.31667 187.901 3.25C187.901 3.15 187.934 3.08333 188.001 3.05C188.068 2.98333 188.168 2.93333 188.301 2.9L197.901 0.15C198.134 0.0833338 198.301 0.0500011 198.401 0.0500011C198.501 0.0166663 198.601 0 198.701 0C198.834 0 198.934 0.0499989 199.001 0.15C199.101 0.25 199.151 0.383335 199.151 0.550001V70.45C199.151 70.8167 199.251 71.1167 199.451 71.35C199.651 71.55 199.968 71.7 200.401 71.8L203.951 72.3C204.284 72.3333 204.451 72.45 204.451 72.65C204.451 72.85 204.301 72.95 204.001 72.95H188.201ZM197.951 56.2L218.201 35.75C219.434 34.4833 219.968 33.4 219.801 32.5C219.668 31.5667 218.884 30.9833 217.451 30.75L215.401 30.5C215.234 30.4667 215.101 30.4333 215.001 30.4C214.934 30.3333 214.901 30.25 214.901 30.15C214.901 30.05 214.951 29.9667 215.051 29.9C215.151 29.8333 215.267 29.8 215.401 29.8H229.251C229.451 29.8 229.584 29.8333 229.651 29.9C229.751 29.9667 229.801 30.05 229.801 30.15C229.801 30.25 229.751 30.3333 229.651 30.4C229.551 30.4667 229.351 30.5167 229.051 30.55C227.318 30.8167 225.584 31.4 223.851 32.3C222.151 33.1667 220.518 34.4 218.951 36L198.251 56.8L197.951 56.2ZM210.751 43.75L225.601 68.9C226.301 70.0667 227.018 70.8833 227.751 71.35C228.518 71.7833 229.534 72.1 230.801 72.3C231.034 72.3333 231.184 72.3833 231.251 72.45C231.318 72.5167 231.351 72.6 231.351 72.7C231.351 72.7667 231.318 72.8333 231.251 72.9C231.184 72.9333 231.084 72.95 230.951 72.95H214.801C214.701 72.95 214.618 72.9333 214.551 72.9C214.484 72.8333 214.451 72.75 214.451 72.65C214.451 72.5833 214.501 72.5167 214.601 72.45C214.701 72.35 214.834 72.3 215.001 72.3L217.451 72.05C218.318 71.95 218.868 71.6333 219.101 71.1C219.334 70.5333 219.184 69.8 218.651 68.9L206.651 47.95L210.751 43.75Z" fill="white" fill-opacity="0.15"/>
<path d="M150.909 0.550001V70.45C150.909 70.8167 151.009 71.1167 151.209 71.35C151.409 71.55 151.725 71.7 152.159 71.8L155.709 72.3C156.042 72.3333 156.209 72.45 156.209 72.65C156.209 72.85 156.059 72.95 155.759 72.95H139.959C139.892 72.95 139.809 72.9167 139.709 72.85C139.642 72.7833 139.609 72.7167 139.609 72.65C139.609 72.5833 139.659 72.5 139.759 72.4C139.892 72.3 140.092 72.2333 140.359 72.2L143.809 71.8C144.242 71.7 144.559 71.55 144.759 71.35C144.959 71.1167 145.059 70.85 145.059 70.55V4.1C145.059 3.93333 145.025 3.8 144.959 3.7C144.892 3.6 144.742 3.55 144.509 3.55H140.009C139.909 3.55 139.825 3.51667 139.759 3.45C139.692 3.38333 139.659 3.31667 139.659 3.25C139.659 3.15 139.692 3.08333 139.759 3.05C139.825 2.98333 139.925 2.93333 140.059 2.9L149.659 0.15C149.892 0.0833338 150.059 0.0500011 150.159 0.0500011C150.259 0.0166663 150.359 0 150.459 0C150.592 0 150.692 0.0499989 150.759 0.15C150.859 0.25 150.909 0.383335 150.909 0.550001ZM150.409 38.25L150.059 37.85L151.659 36.35C154.792 33.5167 157.409 31.55 159.509 30.45C161.609 29.35 163.692 28.8 165.759 28.8C168.925 28.8 171.392 29.8833 173.159 32.05C174.925 34.2167 176.125 37.4833 176.759 41.85L180.809 69.9C180.875 70.4667 181.042 70.9333 181.309 71.3C181.609 71.6667 182.059 71.8833 182.659 71.95L185.609 72.35C185.742 72.3833 185.842 72.4333 185.909 72.5C185.975 72.5333 186.009 72.5833 186.009 72.65C186.009 72.7167 185.975 72.7833 185.909 72.85C185.842 72.9167 185.742 72.95 185.609 72.95H169.559C169.225 72.95 169.059 72.85 169.059 72.65C169.059 72.4833 169.242 72.3667 169.609 72.3L173.309 71.8C173.942 71.7 174.375 71.4833 174.609 71.15C174.842 70.7833 174.925 70.3667 174.859 69.9L170.959 42.4C170.425 38.6333 169.492 35.8833 168.159 34.15C166.825 32.3833 164.892 31.5 162.359 31.5C160.725 31.5 159.092 31.9333 157.459 32.8C155.825 33.6333 154.009 34.95 152.009 36.75L150.409 38.25Z" fill="white" fill-opacity="0.15"/>
<path d="M120.633 73.15C123.433 73.15 125.683 72.4 127.383 70.9C129.083 69.3667 129.933 67.3833 129.933 64.95C129.933 63.3167 129.55 61.8667 128.783 60.6C128.05 59.3333 126.816 58.1833 125.083 57.15C123.35 56.1167 121 55.1333 118.033 54.2C114.566 53.1 111.8 51.9 109.733 50.6C107.7 49.2667 106.233 47.7667 105.333 46.1C104.466 44.4 104.033 42.4667 104.033 40.3C104.033 36.6 105.283 33.7333 107.783 31.7C110.316 29.6333 113.65 28.6 117.783 28.6C119.75 28.6 121.366 28.8 122.633 29.2C123.933 29.5667 124.916 29.95 125.583 30.35C126.283 30.75 126.733 30.95 126.933 30.95C127.199 30.95 127.6 30.75 128.133 30.35C128.666 29.95 129.183 29.5667 129.683 29.2C130.183 28.8 130.516 28.6 130.683 28.6C130.783 28.6 130.866 28.6167 130.933 28.65C131 28.6833 131.066 28.8 131.133 29L134.383 41.85C134.45 42.05 134.466 42.2167 134.433 42.35C134.433 42.4833 134.366 42.6 134.233 42.7C134.1 42.7333 133.983 42.7333 133.883 42.7C133.783 42.6333 133.7 42.5333 133.633 42.4C132.333 39.2 130.9 36.65 129.333 34.75C127.766 32.8167 126.049 31.4167 124.183 30.55C122.316 29.6833 120.25 29.25 117.983 29.25C114.85 29.25 112.366 30.0333 110.533 31.6C108.733 33.1333 107.833 35.2167 107.833 37.85C107.833 39.3833 108.183 40.7833 108.883 42.05C109.583 43.2833 110.816 44.4333 112.583 45.5C114.383 46.5333 116.9 47.5167 120.133 48.45C123.366 49.3833 125.983 50.5 127.983 51.8C129.983 53.1 131.45 54.6333 132.383 56.4C133.316 58.1333 133.783 60.1167 133.783 62.35C133.783 64.65 133.233 66.6667 132.133 68.4C131.066 70.1 129.566 71.45 127.633 72.45C125.7 73.4167 123.45 73.9 120.883 73.9C119.083 73.9 117.516 73.6167 116.183 73.05C114.883 72.4833 113.833 71.9167 113.033 71.35C112.233 70.7833 111.716 70.5 111.483 70.5C111.35 70.5 111.1 70.7667 110.733 71.3C110.366 71.8333 109.983 72.3667 109.583 72.9C109.183 73.4 108.883 73.65 108.683 73.65C108.583 73.65 108.483 73.6167 108.383 73.55C108.283 73.4833 108.183 73.3333 108.083 73.1L105.483 61.6C105.416 61.3 105.383 61.0833 105.383 60.95C105.416 60.7833 105.5 60.6833 105.633 60.65C105.733 60.5833 105.816 60.5833 105.883 60.65C105.983 60.6833 106.05 60.75 106.083 60.85C108.15 65.45 110.483 68.65 113.083 70.45C115.683 72.25 118.2 73.15 120.633 73.15Z" fill="white" fill-opacity="0.15"/>
<path d="M88.5836 71V65.35V65.15V33.35C88.5836 33.1833 88.5336 33.05 88.4336 32.95C88.3669 32.85 88.2336 32.8 88.0336 32.8H83.4836C83.3836 32.7667 83.3003 32.7333 83.2336 32.7C83.2003 32.6333 83.1836 32.5667 83.1836 32.5C83.1836 32.3667 83.2169 32.2833 83.2836 32.25C83.3503 32.1833 83.4503 32.1333 83.5836 32.1L93.1336 29.4C93.4003 29.3 93.5836 29.25 93.6836 29.25C93.7836 29.2167 93.8836 29.2 93.9836 29.2C94.1169 29.2 94.2169 29.2667 94.2836 29.4C94.3836 29.5 94.4336 29.6167 94.4336 29.75V70.45C94.4336 70.8167 94.5336 71.1167 94.7336 71.35C94.9336 71.55 95.2503 71.7 95.6836 71.8L99.1836 72.3C99.3836 72.3 99.5169 72.3333 99.5836 72.4C99.6503 72.4667 99.6836 72.55 99.6836 72.65C99.6836 72.7167 99.6503 72.7834 99.5836 72.85C99.5169 72.9167 99.4169 72.95 99.2836 72.95H90.1336C89.6336 72.95 89.2503 72.8 88.9836 72.5C88.7169 72.1667 88.5836 71.6667 88.5836 71ZM60.5336 60.4V33.35C60.5336 33.1833 60.4836 33.05 60.3836 32.95C60.2836 32.85 60.1169 32.8 59.8836 32.8H55.3836C55.2836 32.7667 55.2003 32.7333 55.1336 32.7C55.0669 32.6333 55.0336 32.5667 55.0336 32.5C55.0336 32.3667 55.0669 32.2833 55.1336 32.25C55.2003 32.1833 55.3003 32.1333 55.4336 32.1L65.0836 29.4C65.3503 29.3 65.5336 29.25 65.6336 29.25C65.7336 29.2167 65.8169 29.2 65.8836 29.2C66.0503 29.2 66.1669 29.2667 66.2336 29.4C66.3336 29.5 66.3836 29.6167 66.3836 29.75V59.85C66.3836 63.6834 67.3003 66.5 69.1336 68.3C70.9669 70.0667 73.3503 70.95 76.2836 70.95C78.0836 70.95 79.9169 70.55 81.7836 69.75C83.6836 68.9167 85.6503 67.5667 87.6836 65.7L89.2836 64.25L89.6336 64.6L88.0336 66.1C84.8336 69.0334 82.0336 71.0334 79.6336 72.1C77.2669 73.1334 74.9503 73.65 72.6836 73.65C69.2169 73.65 66.3169 72.55 63.9836 70.35C61.6836 68.15 60.5336 64.8333 60.5336 60.4Z" fill="white" fill-opacity="0.15"/>
<path d="M51.25 28.2C51.25 32.7 50.2667 36.6333 48.3 40C46.3333 43.3667 43.6 45.9834 40.1 47.85C36.6333 49.7167 32.6 50.65 28 50.65C25.1 50.65 22.25 50.3 19.45 49.6C16.65 48.8667 14.0667 47.65 11.7 45.95L11.9 45.45C13.4333 46.5167 15.0333 47.35 16.7 47.95C18.3667 48.55 20.0167 48.9833 21.65 49.25C23.3167 49.4833 24.8667 49.6 26.3 49.6C30.0333 49.6 33.2667 48.6834 36 46.85C38.7333 44.9834 40.85 42.4167 42.35 39.15C43.8833 35.8833 44.65 32.15 44.65 27.95C44.65 22.9167 43.6333 18.6 41.6 15C39.6 11.3667 36.7833 8.58335 33.15 6.65001C29.55 4.68335 25.3667 3.70001 20.6 3.70001H13.95V70.35C13.95 70.65 14.05 70.9167 14.25 71.15C14.4833 71.35 14.8333 71.4834 15.3 71.55L20.9 72.35C21.0667 72.3834 21.1833 72.4167 21.25 72.45C21.3167 72.4833 21.35 72.55 21.35 72.65C21.35 72.75 21.3167 72.8333 21.25 72.9C21.1833 72.9333 21.0667 72.95 20.9 72.95H0.45C0.316666 72.95 0.2 72.9333 0.0999999 72.9C0.0333334 72.8333 0 72.75 0 72.65C0 72.4833 0.15 72.3834 0.45 72.35L5.95 71.55C6.41667 71.4834 6.75 71.35 6.95 71.15C7.18333 70.9167 7.3 70.6334 7.3 70.3V5.65001C7.3 5.28335 7.2 5.00001 7 4.80001C6.8 4.56668 6.48333 4.41668 6.05 4.35001L0.4 3.55001C0.133333 3.51668 0 3.41668 0 3.25001C0 3.15001 0.0333334 3.08335 0.0999999 3.05001C0.2 2.98334 0.316666 2.95001 0.45 2.95001H20.6C26.6333 2.95001 31.95 4.00001 36.55 6.10001C41.1833 8.16668 44.7833 11.1 47.35 14.9C49.95 18.6667 51.25 23.1 51.25 28.2Z" fill="white" fill-opacity="0.15"/>
</svg>
